<svg width="20" height="20" viewBox="0 0 20 20" fill="none" xmlns="http://www.w3.org/2000/svg">
<path d="M16.25 3.34961H3.75001C2.82954 3.34961 2.08334 4.0958 2.08334 5.01628V15.8496C2.08334 16.7701 2.82954 17.5163 3.75001 17.5163H16.25C17.1705 17.5163 17.9167 16.7701 17.9167 15.8496V5.01628C17.9167 4.0958 17.1705 3.34961 16.25 3.34961Z" fill="#F4868F"/>
<path d="M7.06669 2.5163H6.25001C6.01989 2.5163 5.83334 2.70285 5.83334 2.93296V4.59963C5.83334 4.82975 6.01989 5.0163 6.25001 5.0163H7.06669C7.2968 5.0163 7.48335 4.82975 7.48335 4.59963V2.93296C7.48335 2.70285 7.2968 2.5163 7.06669 2.5163Z" fill="#707070"/>
<path d="M7.28352 7.91669H6.03352C5.8034 7.91669 5.61685 8.10324 5.61685 8.33335V9.58335C5.61685 9.81344 5.8034 10 6.03352 10H7.28352C7.51364 10 7.70018 9.81344 7.70018 9.58335V8.33335C7.70018 8.10324 7.51364 7.91669 7.28352 7.91669Z" fill="white"/>
<path d="M10.625 7.91669H9.37501C9.14493 7.91669 8.95834 8.10324 8.95834 8.33335V9.58335C8.95834 9.81344 9.14493 10 9.37501 10H10.625C10.8551 10 11.0417 9.81344 11.0417 9.58335V8.33335C11.0417 8.10324 10.8551 7.91669 10.625 7.91669Z" fill="white"/>
<path d="M13.9665 7.91669H12.7165C12.4863 7.91669 12.2998 8.10324 12.2998 8.33335V9.58335C12.2998 9.81344 12.4863 10 12.7165 10H13.9665C14.1966 10 14.3832 9.81344 14.3832 9.58335V8.33335C14.3832 8.10324 14.1966 7.91669 13.9665 7.91669Z" fill="white"/>
<path d="M13.75 2.5163H12.9167C12.6866 2.5163 12.5 2.70285 12.5 2.93296V4.59963C12.5 4.82975 12.6866 5.0163 12.9167 5.0163H13.75C13.9801 5.0163 14.1667 4.82975 14.1667 4.59963V2.93296C14.1667 2.70285 13.9801 2.5163 13.75 2.5163Z" fill="#707070"/>
<path d="M7.28352 11.6667H6.03352C5.8034 11.6667 5.61685 11.8533 5.61685 12.0834V13.3334C5.61685 13.5634 5.8034 13.75 6.03352 13.75H7.28352C7.51364 13.75 7.70018 13.5634 7.70018 13.3334V12.0834C7.70018 11.8533 7.51364 11.6667 7.28352 11.6667Z" fill="white"/>
<path d="M10.625 11.6667H9.37501C9.14493 11.6667 8.95834 11.8533 8.95834 12.0834V13.3334C8.95834 13.5634 9.14493 13.75 9.37501 13.75H10.625C10.8551 13.75 11.0417 13.5634 11.0417 13.3334V12.0834C11.0417 11.8533 10.8551 11.6667 10.625 11.6667Z" fill="white"/>
<path d="M13.9665 11.6667H12.7165C12.4863 11.6667 12.2998 11.8533 12.2998 12.0834V13.3334C12.2998 13.5634 12.4863 13.75 12.7165 13.75H13.9665C14.1966 13.75 14.3832 13.5634 14.3832 13.3334V12.0834C14.3832 11.8533 14.1966 11.6667 13.9665 11.6667Z" fill="white"/>
</svg>
