<svg width="29" height="28" viewBox="0 0 29 28" fill="none" xmlns="http://www.w3.org/2000/svg">
<path d="M12.1667 11.6666H16.8334C18.3805 11.6666 19.8643 12.2812 20.9581 13.3751C22.0521 14.4691 22.6667 15.9528 22.6667 17.5V24.5C22.6667 25.1188 22.4209 25.7122 21.9833 26.1499C21.5457 26.5875 20.9522 26.8333 20.3334 26.8333H8.66671C8.04787 26.8333 7.45438 26.5875 7.0168 26.1499C6.5792 25.7122 6.33337 25.1188 6.33337 24.5V17.5C6.33337 15.9528 6.94795 14.4691 8.04192 13.3751C9.13588 12.2812 10.6196 11.6666 12.1667 11.6666Z" fill="#009FE9"/>
<path d="M14.5 10.5C17.0773 10.5 19.1667 8.41062 19.1667 5.83329C19.1667 3.25596 17.0773 1.16663 14.5 1.16663C11.9227 1.16663 9.83337 3.25596 9.83337 5.83329C9.83337 8.41062 11.9227 10.5 14.5 10.5Z" fill="#009FE9"/>
</svg>
