<svg width="29" height="28" viewBox="0 0 29 28" fill="none" xmlns="http://www.w3.org/2000/svg">
<path d="M21.5 2.33337H7.50002C6.21136 2.33337 5.16669 3.37804 5.16669 4.66671V23.3334C5.16669 24.6221 6.21136 25.6667 7.50002 25.6667H21.5C22.7887 25.6667 23.8334 24.6221 23.8334 23.3334V4.66671C23.8334 3.37804 22.7887 2.33337 21.5 2.33337Z" fill="#009FE9"/>
<path d="M12.7383 9.33337H8.08333C7.76117 9.33337 7.5 9.59454 7.5 9.91671V11.0834C7.5 11.4055 7.76117 11.6667 8.08333 11.6667H12.7383C13.0605 11.6667 13.3217 11.4055 13.3217 11.0834V9.91671C13.3217 9.59454 13.0605 9.33337 12.7383 9.33337Z" fill="white"/>
<path fill-rule="evenodd" clip-rule="evenodd" d="M18.0001 10.0167L20.6752 7.34167L22.3251 8.9916L18.0001 13.3165L14.8419 10.1583L16.4918 8.50834L18.0001 10.0167Z" fill="white"/>
<path fill-rule="evenodd" clip-rule="evenodd" d="M18.0001 17.0167L20.6752 14.3417L22.3251 15.9916L18.0001 20.3165L14.8419 17.1582L16.4918 15.5083L18.0001 17.0167Z" fill="white"/>
<path d="M12.7498 16.3334H8.09475C7.77257 16.3334 7.51141 16.5946 7.51141 16.9167V18.1184C7.51141 18.4405 7.77257 18.7017 8.09475 18.7017H12.7498C13.0719 18.7017 13.3331 18.4405 13.3331 18.1184V16.9167C13.3331 16.5946 13.0719 16.3334 12.7498 16.3334Z" fill="white"/>
</svg>
