<svg width="20" height="20" viewBox="0 0 20 20" fill="none" xmlns="http://www.w3.org/2000/svg">
<path d="M9.16669 17.0833V1.66665C9.16669 1.44563 9.25452 1.23365 9.41077 1.07738C9.56702 0.921096 9.77902 0.833313 10 0.833313C10.221 0.833313 10.433 0.921096 10.5893 1.07738C10.7455 1.23365 10.8334 1.44563 10.8334 1.66665V17.0833C10.8334 17.1938 10.7894 17.2998 10.7114 17.3779C10.6332 17.4561 10.5272 17.5 10.4167 17.5H9.58335C9.47285 17.5 9.36685 17.4561 9.28869 17.3779C9.2106 17.2998 9.16669 17.1938 9.16669 17.0833Z" fill="#737A83"/>
<path d="M17.5 16.6667H2.50002C2.03979 16.6667 1.66669 17.0398 1.66669 17.5C1.66669 17.9603 2.03979 18.3334 2.50002 18.3334H17.5C17.9603 18.3334 18.3334 17.9603 18.3334 17.5C18.3334 17.0398 17.9603 16.6667 17.5 16.6667Z" fill="#88BFFF"/>
<path d="M1.66669 10.8415V10.0081C1.66669 8.01899 2.45687 6.11133 3.8634 4.70482C5.26991 3.29829 7.17756 2.50812 9.16669 2.50812H10.8334C12.8224 2.50812 14.7302 3.29829 16.1367 4.70482C17.5432 6.11133 18.3334 8.01899 18.3334 10.0081V10.8415" fill="#F4868F"/>
<path d="M6.66669 10.8415C6.66669 6.25812 8.15835 2.50812 10 2.50812C11.8417 2.50812 13.3334 6.21645 13.3334 10.8415" fill="white"/>
</svg>
