<svg width="24" height="24" viewBox="0 0 24 24" fill="none" xmlns="http://www.w3.org/2000/svg">
<path fill-rule="evenodd" clip-rule="evenodd" d="M16.6723 20.3998C16.5387 20.3998 16.4051 20.367 16.2833 20.2997L12 17.9386L7.71662 20.2997C7.43269 20.4556 7.08995 20.4282 6.83374 20.2296C6.57501 20.0311 6.44648 19.6952 6.50025 19.3628L7.31676 14.3748L3.85581 10.8429C3.6248 10.608 3.54247 10.2553 3.64076 9.93356C3.7382 9.61183 4.00197 9.37785 4.31867 9.3291L9.10772 8.59525L11.2473 4.05211C11.5312 3.44943 12.4687 3.44943 12.7526 4.05211L14.8922 8.59525L19.6813 9.3291C19.998 9.37785 20.2617 9.61183 20.3592 9.93356C20.4575 10.2553 20.3752 10.608 20.1441 10.8429L16.6832 14.3748L17.4997 19.3628C17.5535 19.6952 17.4249 20.0311 17.1662 20.2296C17.0209 20.3431 16.847 20.3998 16.6723 20.3998" fill="#1CB35B"/>
</svg>
